<mxfile host="app.diagrams.net" modified="2024-04-14T07:32:05.711Z" agent="Mozilla/5.0 (X11; Linux x86_64) AppleWebKit/537.36 (KHTML, like Gecko) Chrome/123.0.0.0 Safari/537.36   " etag="IIPmAigf9CMcHAP0ZRaC" version="23.1.1" type="device">
  <diagram name="Page-1" id="uWzEG0AM3JZUDcOAj8HS">
    <mxGraphModel dx="951" dy="1648" grid="1" gridSize="10" guides="1" tooltips="1" connect="1" arrows="1" fold="1" page="1" pageScale="1" pageWidth="850" pageHeight="1100" math="0" shadow="0">
      <root>
        <mxCell id="0" />
        <mxCell id="1" parent="0" />
        <mxCell id="pe80J8kXgUvI01c9ptE2-1" value="gserver" style="rounded=0;whiteSpace=wrap;html=1;" vertex="1" parent="1">
          <mxGeometry x="300" y="260" width="120" height="60" as="geometry" />
        </mxCell>
        <mxCell id="pe80J8kXgUvI01c9ptE2-2" value="" style="endArrow=classic;startArrow=classic;html=1;rounded=0;entryX=0.5;entryY=1;entryDx=0;entryDy=0;" edge="1" parent="1" target="pe80J8kXgUvI01c9ptE2-1">
          <mxGeometry width="50" height="50" relative="1" as="geometry">
            <mxPoint x="360" y="460" as="sourcePoint" />
            <mxPoint x="370" y="380" as="targetPoint" />
          </mxGeometry>
        </mxCell>
        <mxCell id="pe80J8kXgUvI01c9ptE2-3" value="&lt;font style=&quot;font-size: 8px;&quot;&gt;HTTP API&lt;/font&gt;" style="triangle;whiteSpace=wrap;html=1;rotation=-90;" vertex="1" parent="1">
          <mxGeometry x="280" y="440" width="50" height="50" as="geometry" />
        </mxCell>
        <mxCell id="pe80J8kXgUvI01c9ptE2-4" value="websocket" style="triangle;whiteSpace=wrap;html=1;rotation=-90;" vertex="1" parent="1">
          <mxGeometry x="390" y="440" width="50" height="50" as="geometry" />
        </mxCell>
        <mxCell id="pe80J8kXgUvI01c9ptE2-5" value="&lt;h1&gt;Frontends&lt;/h1&gt;&lt;div&gt;Each frontend will take in documents then emit them onto the queue, so far only the http interface is&amp;nbsp;&lt;/div&gt;" style="text;html=1;strokeColor=none;fillColor=none;spacing=5;spacingTop=-20;whiteSpace=wrap;overflow=hidden;rounded=0;" vertex="1" parent="1">
          <mxGeometry x="80" y="430" width="190" height="120" as="geometry" />
        </mxCell>
        <mxCell id="pe80J8kXgUvI01c9ptE2-6" value="" style="endArrow=none;html=1;rounded=0;entryX=0.488;entryY=0.308;entryDx=0;entryDy=0;entryPerimeter=0;" edge="1" parent="1" source="pe80J8kXgUvI01c9ptE2-3" target="pe80J8kXgUvI01c9ptE2-4">
          <mxGeometry width="50" height="50" relative="1" as="geometry">
            <mxPoint x="330" y="515" as="sourcePoint" />
            <mxPoint x="400.71067811865476" y="465" as="targetPoint" />
          </mxGeometry>
        </mxCell>
        <mxCell id="pe80J8kXgUvI01c9ptE2-7" value="Actor" style="shape=umlActor;verticalLabelPosition=bottom;verticalAlign=top;html=1;outlineConnect=0;" vertex="1" parent="1">
          <mxGeometry x="250" y="120" width="30" height="60" as="geometry" />
        </mxCell>
        <mxCell id="pe80J8kXgUvI01c9ptE2-8" value="Actor" style="shape=umlActor;verticalLabelPosition=bottom;verticalAlign=top;html=1;outlineConnect=0;" vertex="1" parent="1">
          <mxGeometry x="360" y="120" width="30" height="60" as="geometry" />
        </mxCell>
        <mxCell id="pe80J8kXgUvI01c9ptE2-9" value="Actor" style="shape=umlActor;verticalLabelPosition=bottom;verticalAlign=top;html=1;outlineConnect=0;" vertex="1" parent="1">
          <mxGeometry x="470" y="120" width="30" height="60" as="geometry" />
        </mxCell>
        <mxCell id="pe80J8kXgUvI01c9ptE2-10" value="Couchdb" style="shape=cylinder3;whiteSpace=wrap;html=1;boundedLbl=1;backgroundOutline=1;size=15;" vertex="1" parent="1">
          <mxGeometry x="500" y="210" width="60" height="80" as="geometry" />
        </mxCell>
        <mxCell id="pe80J8kXgUvI01c9ptE2-11" value="" style="endArrow=classic;startArrow=classic;html=1;rounded=0;entryX=0;entryY=0.5;entryDx=0;entryDy=0;entryPerimeter=0;" edge="1" parent="1" source="pe80J8kXgUvI01c9ptE2-1" target="pe80J8kXgUvI01c9ptE2-10">
          <mxGeometry width="50" height="50" relative="1" as="geometry">
            <mxPoint x="410" y="340" as="sourcePoint" />
            <mxPoint x="460" y="290" as="targetPoint" />
          </mxGeometry>
        </mxCell>
        <mxCell id="pe80J8kXgUvI01c9ptE2-12" value="" style="endArrow=classic;startArrow=classic;html=1;rounded=0;" edge="1" parent="1" source="pe80J8kXgUvI01c9ptE2-1" target="pe80J8kXgUvI01c9ptE2-7">
          <mxGeometry width="50" height="50" relative="1" as="geometry">
            <mxPoint x="230" y="280" as="sourcePoint" />
            <mxPoint x="280" y="230" as="targetPoint" />
          </mxGeometry>
        </mxCell>
        <mxCell id="pe80J8kXgUvI01c9ptE2-13" value="" style="endArrow=classic;startArrow=classic;html=1;rounded=0;exitX=0.5;exitY=0;exitDx=0;exitDy=0;" edge="1" parent="1" source="pe80J8kXgUvI01c9ptE2-1" target="pe80J8kXgUvI01c9ptE2-8">
          <mxGeometry width="50" height="50" relative="1" as="geometry">
            <mxPoint x="350" y="240" as="sourcePoint" />
            <mxPoint x="400" y="190" as="targetPoint" />
          </mxGeometry>
        </mxCell>
        <mxCell id="pe80J8kXgUvI01c9ptE2-14" value="" style="endArrow=classic;startArrow=classic;html=1;rounded=0;exitX=0.917;exitY=0;exitDx=0;exitDy=0;exitPerimeter=0;" edge="1" parent="1" source="pe80J8kXgUvI01c9ptE2-1" target="pe80J8kXgUvI01c9ptE2-9">
          <mxGeometry width="50" height="50" relative="1" as="geometry">
            <mxPoint x="470" y="230" as="sourcePoint" />
            <mxPoint x="520" y="180" as="targetPoint" />
          </mxGeometry>
        </mxCell>
        <mxCell id="pe80J8kXgUvI01c9ptE2-15" value="" style="endArrow=classic;startArrow=classic;html=1;rounded=0;exitX=1;exitY=0.75;exitDx=0;exitDy=0;entryX=0.002;entryY=0.443;entryDx=0;entryDy=0;entryPerimeter=0;" edge="1" parent="1" source="pe80J8kXgUvI01c9ptE2-1" target="pe80J8kXgUvI01c9ptE2-16">
          <mxGeometry width="50" height="50" relative="1" as="geometry">
            <mxPoint x="440" y="380" as="sourcePoint" />
            <mxPoint x="490" y="340" as="targetPoint" />
          </mxGeometry>
        </mxCell>
        <mxCell id="pe80J8kXgUvI01c9ptE2-16" value="Graph Index" style="shape=cylinder3;whiteSpace=wrap;html=1;boundedLbl=1;backgroundOutline=1;size=15;" vertex="1" parent="1">
          <mxGeometry x="510" y="300" width="60" height="80" as="geometry" />
        </mxCell>
        <mxCell id="pe80J8kXgUvI01c9ptE2-17" value="&lt;h1&gt;Databases&lt;/h1&gt;&lt;div&gt;The database client will be an actor internal to gserver and will preform CRUD depending on the event type&lt;/div&gt;&lt;div&gt;The GraphINDEX will monitor the _changes endpoint or any deletion event and delete relations&lt;/div&gt;" style="text;html=1;strokeColor=none;fillColor=none;spacing=5;spacingTop=-20;whiteSpace=wrap;overflow=hidden;rounded=0;" vertex="1" parent="1">
          <mxGeometry x="610" y="180" width="190" height="190" as="geometry" />
        </mxCell>
        <mxCell id="pe80J8kXgUvI01c9ptE2-18" value="" style="endArrow=classic;startArrow=classic;html=1;rounded=0;" edge="1" parent="1">
          <mxGeometry width="50" height="50" relative="1" as="geometry">
            <mxPoint x="170" y="380" as="sourcePoint" />
            <mxPoint x="360" y="380" as="targetPoint" />
          </mxGeometry>
        </mxCell>
        <mxCell id="pe80J8kXgUvI01c9ptE2-20" value="&lt;h1&gt;External actors&amp;nbsp;&lt;/h1&gt;&lt;div&gt;External actors can pipe from the RabbitMQ and still send evnts to the main actor system. RabbitMQ allows for a fail fast system, messages will only be sent as fast as they can be proccesed, preventing data loss by leaving the rest to rabbitmq&lt;/div&gt;" style="text;html=1;strokeColor=none;fillColor=none;spacing=5;spacingTop=-20;whiteSpace=wrap;overflow=hidden;rounded=0;" vertex="1" parent="1">
          <mxGeometry x="60" y="165" width="190" height="170" as="geometry" />
        </mxCell>
        <mxCell id="pe80J8kXgUvI01c9ptE2-21" value="&lt;h1&gt;Actor System&lt;/h1&gt;&lt;p&gt;actors can sub to the event stream system and handle messages like normal actors from other versions, like the star router.&lt;/p&gt;&lt;p&gt;&lt;br&gt;&lt;/p&gt;" style="text;html=1;strokeColor=none;fillColor=none;spacing=5;spacingTop=-20;whiteSpace=wrap;overflow=hidden;rounded=0;" vertex="1" parent="1">
          <mxGeometry x="250" width="210" height="120" as="geometry" />
        </mxCell>
        <mxCell id="pe80J8kXgUvI01c9ptE2-22" value="other languages" style="triangle;whiteSpace=wrap;html=1;rotation=0;" vertex="1" parent="1">
          <mxGeometry x="120" y="340" width="50" height="80" as="geometry" />
        </mxCell>
        <mxCell id="pe80J8kXgUvI01c9ptE2-23" value="rabbitmq" style="text;html=1;strokeColor=none;fillColor=none;align=center;verticalAlign=middle;whiteSpace=wrap;rounded=0;" vertex="1" parent="1">
          <mxGeometry x="220" y="360" width="60" height="30" as="geometry" />
        </mxCell>
        <mxCell id="pe80J8kXgUvI01c9ptE2-24" value="config file defining actors/extra functionality" style="shape=note;whiteSpace=wrap;html=1;backgroundOutline=1;darkOpacity=0.05;" vertex="1" parent="1">
          <mxGeometry x="571" y="-80" width="80" height="100" as="geometry" />
        </mxCell>
        <mxCell id="pe80J8kXgUvI01c9ptE2-28" value="" style="endArrow=classic;html=1;rounded=0;entryX=0.941;entryY=1.002;entryDx=0;entryDy=0;entryPerimeter=0;exitX=0;exitY=1;exitDx=0;exitDy=0;exitPerimeter=0;" edge="1" parent="1" source="pe80J8kXgUvI01c9ptE2-24" target="pe80J8kXgUvI01c9ptE2-21">
          <mxGeometry width="50" height="50" relative="1" as="geometry">
            <mxPoint x="500" y="20" as="sourcePoint" />
            <mxPoint x="550" y="-30" as="targetPoint" />
          </mxGeometry>
        </mxCell>
      </root>
    </mxGraphModel>
  </diagram>
</mxfile>
